<svg width="44" height="44" viewBox="0 0 44 44" fill="none" xmlns="http://www.w3.org/2000/svg">
<rect width="44" height="44" rx="22" fill="#FF5555"/>
<path d="M31.4688 14.0469C28.75 11.75 24.5781 12.0781 22 14.75C19.375 12.0781 15.2031 11.75 12.4844 14.0469C8.96875 17 9.48438 21.8281 12.0156 24.4062L20.2188 32.7969C20.6875 33.2656 21.2969 33.5469 22 33.5469C22.6562 33.5469 23.2656 33.2656 23.7344 32.7969L31.9844 24.4062C34.4688 21.8281 34.9844 17 31.4688 14.0469ZM30.3438 22.8125L22.1406 31.2031C22.0469 31.2969 21.9531 31.2969 21.8125 31.2031L13.6094 22.8125C11.875 21.0781 11.5469 17.7969 13.9375 15.7812C15.7656 14.2344 18.5781 14.4688 20.3594 16.25L22 17.9375L23.6406 16.25C25.375 14.4688 28.1875 14.2344 30.0156 15.7344C32.4062 17.7969 32.0781 21.0781 30.3438 22.8125Z" fill="white"/>
</svg>
